HIERARCHY
ROOT Hips
{
	OFFSET -3.958830 18.904000 13.208200
	CHANNELS 6 Xposition Yposition Zposition Zrotation Yrotation Xrotation 
	JOINT LHipJoint
	{
		OFFSET 0.000000 0.000000 0.000000
		CHANNELS 3 Zrotation Yrotation Xrotation
		JOINT LeftUpLeg
		{
			OFFSET 1.800000 -1.400000 0.085000
			CHANNELS 3 Zrotation Yrotation Xrotation
			JOINT LeftLeg
			{
				OFFSET 2.215000 -6.000000 0.000000
				CHANNELS 3 Zrotation Yrotation Xrotation
				JOINT LeftFoot
				{
					OFFSET 2.500000 -6.900000 0.000000
					CHANNELS 3 Zrotation Yrotation Xrotation
					JOINT LeftToeBase
					{
						OFFSET 0.200000 -0.500000 1.950000
						CHANNELS 3 Zrotation Yrotation Xrotation
						End Site
						{
							OFFSET 0.000000 0.000000 0.000000
						}
					}
				}
			}
		}
	}
	JOINT RHipJoint
	{
		OFFSET 0.000000 0.000000 0.000000
		CHANNELS 3 Zrotation Yrotation Xrotation
		JOINT RightUpLeg
		{
			OFFSET -1.800000 -1.400000 0.085000
			CHANNELS 3 Zrotation Yrotation Xrotation
			JOINT RightLeg
			{
				OFFSET -2.215000 -6.000000 0.000000
				CHANNELS 3 Zrotation Yrotation Xrotation
				JOINT RightFoot
				{
					OFFSET -2.500000 -6.900000 0.000000
					CHANNELS 3 Zrotation Yrotation Xrotation
					JOINT RightToeBase
					{
						OFFSET -0.200000 -0.500000 1.950000
						CHANNELS 3 Zrotation Yrotation Xrotation
						End Site
						{
							OFFSET 0.000000 0.000000 0.000000
						}
					}
				}
			}
		}
	}
	JOINT LowerBack
	{
		OFFSET 0.000000 0.000000 0.000000
		CHANNELS 3 Zrotation Yrotation Xrotation
		JOINT Spine
		{
			OFFSET -0.087000 1.940000 -0.288900
			CHANNELS 3 Zrotation Yrotation Xrotation
			JOINT Spine1
			{
				OFFSET 0.000000 1.950000 0.060000
				CHANNELS 3 Zrotation Yrotation Xrotation
				JOINT Neck
				{
					OFFSET 0.000000 0.000000 0.000000
					CHANNELS 3 Zrotation Yrotation Xrotation
					JOINT Neck1
					{
						OFFSET 0.000000 1.600000 0.340000
						CHANNELS 3 Zrotation Yrotation Xrotation
						JOINT Head
						{
							OFFSET 0.000000 1.667000 -0.240000
							CHANNELS 3 Zrotation Yrotation Xrotation
							End Site
							{
								OFFSET 0.000000 0.000000 0.000000
							}
						}
					}
				}
				JOINT LeftShoulder
				{
					OFFSET 0.000000 0.000000 0.000000
					CHANNELS 3 Zrotation Yrotation Xrotation
					JOINT LeftArm
					{
						OFFSET 2.700000 1.550000 -0.730000
						CHANNELS 3 Zrotation Yrotation Xrotation
						JOINT LeftForeArm
						{
							OFFSET 5.450000 0.000000 0.000000
							CHANNELS 3 Zrotation Yrotation Xrotation
							JOINT LeftHand
							{
								OFFSET 3.450000 0.000000 0.000000
								CHANNELS 3 Zrotation Yrotation Xrotation
								JOINT LeftHandIndex1
								{
									OFFSET 0.750000 0.000000 0.000000
									CHANNELS 3 Zrotation Yrotation Xrotation
									End Site
									{
										OFFSET 0.000000 0.000000 0.000000
									}
								}
							}
						}
					}
				}
				JOINT RightShoulder
				{
					OFFSET 0.000000 0.000000 0.000000
					CHANNELS 3 Zrotation Yrotation Xrotation
					JOINT RightArm
					{
						OFFSET -2.700000 1.550000 -0.730000
						CHANNELS 3 Zrotation Yrotation Xrotation
						JOINT RightForeArm
						{
							OFFSET -5.450000 0.000000 0.000000
							CHANNELS 3 Zrotation Yrotation Xrotation
							JOINT RightHand
							{
								OFFSET -3.450000 0.000000 0.000000
								CHANNELS 3 Zrotation Yrotation Xrotation
								JOINT RightHandIndex1
								{
									OFFSET -0.750000 0.000000 0.000000
									CHANNELS 3 Zrotation Yrotation Xrotation
									End Site
									{
										OFFSET 0.000000 0.000000 0.000000
									}
								}
							}
						}
					}
				}
			}
		}
	}
}
MOTION
Frames: 7
Frame Time: 0.016667
0.154790 17.802010 -0.012230 -20.935476 4.708716 -8.915617 -14.618233 11.719030 1.051430 20.325538 0.476350 -16.751871 4.095544 4.705985 16.739018 -0.491726 4.116865 3.233593 0.016720 -0.303900 -0.244360 19.090507 -8.466880 6.625621 -7.676669 24.248688 -57.556413 37.742509 -62.744592 89.469803 -4.910286 -20.883254 -1.102308 -0.232410 0.601730 0.157070 -5.487385 -0.110592 -9.137574 20.815909 -9.190685 38.815451 -18.326510 -3.026801 -7.092481 0.046060 -9.852972 -8.626820 -23.592323 6.909621 41.501874 14.432320 -9.148920 -12.800790 -21.047137 -2.696479 -0.050051 -30.004343 -0.138096 -6.460688 -72.837473 -32.254513 17.517903 -3.581250 3.224580 0.714450 -0.014460 -0.067100 0.246460 19.567240 8.485198 6.085206 57.948243 -2.763012 -15.334744 46.583848 36.236159 8.642868 2.244122 -1.274836 -0.303400 0.478080 0.296780 0.054940 
0.154760 17.796200 -0.022810 -21.045478 4.666801 -8.970375 -14.623357 11.748479 1.018180 20.022246 0.451871 -16.697228 4.707528 4.521026 16.601823 -0.537523 4.106051 3.239607 -0.023440 -0.366160 -0.271780 19.091104 -8.445090 6.662668 -8.367649 23.983359 -58.162892 39.489184 -62.947979 87.706513 -4.831637 -20.620460 -1.067408 -0.247890 0.631170 0.153870 -5.479932 -0.177071 -9.119107 20.747257 -9.247015 38.765320 -18.184327 -2.983922 -6.796577 0.040384 -10.131226 -8.981094 -24.462521 7.555959 41.579434 14.764940 -9.229670 -12.297990 -21.087827 -3.214786 0.313602 -30.915790 0.480539 -6.949584 -72.236709 -33.616456 17.969401 -3.612952 3.197347 0.732390 -0.002910 -0.092590 0.227390 19.707907 9.178722 6.334446 57.438439 -2.829573 -15.501203 46.868897 36.424289 8.745481 2.229384 -1.248598 -0.338670 0.495120 0.343050 0.042780 
0.149580 17.781130 -0.039760 -21.144576 4.396033 -8.583341 -14.629260 11.781334 0.967685 19.290984 0.406246 -17.318091 5.983707 4.202022 17.002097 -0.542063 4.033530 3.268579 -0.053800 -0.404530 -0.305620 19.102268 -8.424556 6.738310 -9.468362 23.804411 -59.553122 41.751257 -62.483942 85.029777 -4.719880 -20.229908 -1.008027 -0.267590 0.661880 0.160460 -5.485577 -0.215283 -9.093531 20.712296 -9.124409 38.341257 -18.145141 -2.838172 -6.645895 0.028033 -10.402597 -9.294982 -25.147776 8.160782 41.306418 15.175710 -9.397940 -11.079490 -20.660300 -3.214788 0.645509 -32.431021 1.105118 -7.414184 -71.575636 -35.072153 18.534079 -3.638428 3.206133 0.715730 0.013390 -0.115580 0.224240 19.378327 9.456851 6.466996 57.445884 -2.922597 -15.569068 47.276250 36.228865 8.757770 2.234676 -1.254539 -0.341490 0.489540 0.368000 0.054260 
0.145960 17.775430 -0.061670 -21.644690 3.843753 -8.609560 -14.634003 11.834676 0.935079 18.991609 0.443877 -17.596685 7.287029 3.893621 17.252535 -0.562090 4.004021 3.273519 -0.059140 -0.424910 -0.297060 19.106420 -8.439896 6.763821 -9.560564 23.635568 -59.838109 45.633107 -61.766654 80.394276 -4.555874 -19.505181 -0.891193 -0.274820 0.656900 0.166430 -5.480950 -0.248794 -9.063570 21.096454 -9.196901 38.322772 -18.271375 -2.521153 -6.307377 0.263066 -10.426090 -9.610896 -25.429275 8.570288 41.786291 14.944020 -9.119550 -10.741970 -20.633152 -3.548072 0.924003 -33.516338 1.659029 -7.963622 -71.079710 -36.354447 18.956772 -3.641725 3.198692 0.733170 0.010460 -0.113460 0.213660 18.938443 9.957782 6.678508 57.690872 -2.912973 -15.922391 47.469503 36.326110 8.732298 2.231950 -1.250416 -0.350300 0.484100 0.378750 0.041370 
0.147150 17.773010 -0.078030 -22.157982 3.464718 -8.435906 -14.624973 11.827274 0.926778 18.937167 0.416219 -17.947162 7.929227 3.737944 17.370860 -0.575524 4.002910 3.273296 -0.086420 -0.458810 -0.321710 19.119982 -8.454731 6.766687 -9.622674 23.166579 -60.213386 49.411739 -62.909871 77.219779 -4.464535 -19.050006 -0.795856 -0.287110 0.682130 0.157330 -5.512118 -0.223389 -9.038306 21.908052 -9.337238 37.828285 -18.690675 -2.285187 -6.086039 0.400673 -10.505437 -9.953030 -26.015684 9.365835 42.465368 15.491140 -9.118500 -9.817940 -20.472407 -3.708006 1.166549 -34.599980 2.075964 -8.336874 -70.476026 -37.503706 19.333650 -3.659745 3.174958 0.738900 0.019170 -0.129630 0.207840 18.540087 10.214310 6.911714 57.903759 -3.215851 -16.196429 47.955548 36.370694 8.815794 2.226265 -1.233091 -0.369840 0.500110 0.403880 0.040930 
0.151060 17.775030 -0.093530 -22.463011 2.901228 -8.509229 -14.616474 11.850325 0.903591 18.819812 0.454424 -17.801407 8.497724 3.589946 17.410979 -0.584954 3.990966 3.273920 -0.094600 -0.466390 -0.326120 19.135864 -8.490239 6.782029 -9.951694 22.818762 -59.922323 52.918893 -61.390300 72.550840 -4.282653 -18.284308 -0.662099 -0.290100 0.679780 0.154030 -5.541696 -0.178466 -9.004157 22.521300 -9.525686 37.693392 -19.164885 -2.146759 -5.817288 0.634473 -10.471408 -10.305228 -26.359211 10.159996 43.508967 15.281780 -8.625350 -9.164400 -20.672751 -4.176057 1.496413 -34.916790 2.771763 -8.766068 -70.685736 -38.775277 20.088161 -3.657203 3.166706 0.751130 0.016970 -0.124730 0.202890 18.313482 10.739972 7.127671 58.385551 -3.029685 -16.478516 47.307181 36.728842 8.696844 2.223090 -1.217181 -0.377440 0.503360 0.412880 0.035010 
0.167820 17.766650 -0.106080 -23.029137 2.243286 -8.447778 -14.616061 11.853262 0.885263 19.080764 0.562607 -18.054752 9.020699 3.549901 17.863342 -0.592876 4.045820 3.235952 -0.082770 -0.463550 -0.313400 19.136419 -8.455119 6.798199 -10.659488 22.386616 -60.063929 53.262350 -63.537749 73.515659 -4.342503 -18.444493 -0.686148 -0.286330 0.662570 0.158710 -5.545540 -0.227065 -8.982621 23.686120 -9.881383 37.263882 -19.679875 -2.098515 -5.434687 1.122797 -10.550624 -10.678454 -27.112065 11.127098 44.537283 14.564820 -8.133870 -8.404070 -20.837719 -4.388967 1.663146 -35.847632 3.307429 -9.250634 -69.963805 -39.610496 20.121755 -3.647589 3.167710 0.765400 0.012640 -0.119230 0.197770 17.548540 11.063086 7.397883 58.460915 -2.961239 -16.542835 48.131471 37.139198 9.056144 2.215523 -1.230524 -0.376770 0.490830 0.413650 0.021330 
